<mxfile host="app.diagrams.net" modified="2024-01-24T10:31:20.710Z" agent="Mozilla/5.0 (Windows NT 10.0; Win64; x64) AppleWebKit/537.36 (KHTML, like Gecko) Chrome/120.0.0.0 Safari/537.36 Edg/120.0.0.0" etag="VRCaE-aqmFGiyWUbH2Fl" version="23.0.0" type="github">
  <diagram id="R2lEEEUBdFMjLlhIrx00" name="Page-1">
    <mxGraphModel dx="698" dy="412" grid="1" gridSize="10" guides="1" tooltips="1" connect="1" arrows="1" fold="1" page="1" pageScale="1" pageWidth="850" pageHeight="1100" math="0" shadow="0" extFonts="Permanent Marker^https://fonts.googleapis.com/css?family=Permanent+Marker">
      <root>
        <mxCell id="0" />
        <mxCell id="1" parent="0" />
        <mxCell id="ObTweVxQlyyFo5v_3acQ-11" style="edgeStyle=orthogonalEdgeStyle;rounded=0;orthogonalLoop=1;jettySize=auto;html=1;exitX=0.75;exitY=0;exitDx=0;exitDy=0;entryX=0;entryY=0.5;entryDx=0;entryDy=0;endArrow=none;fillColor=#A9C4EB;" edge="1" parent="1" source="DWMPWbV9-WAkpCnThg0R-2" target="ObTweVxQlyyFo5v_3acQ-8">
          <mxGeometry relative="1" as="geometry">
            <mxPoint x="590" y="320" as="targetPoint" />
            <Array as="points">
              <mxPoint x="580" y="325" />
            </Array>
          </mxGeometry>
        </mxCell>
        <mxCell id="ObTweVxQlyyFo5v_3acQ-22" value="" style="edgeStyle=orthogonalEdgeStyle;rounded=0;orthogonalLoop=1;jettySize=auto;html=1;endArrow=none;fillColor=#A9C4EB;" edge="1" parent="1" source="DWMPWbV9-WAkpCnThg0R-2" target="ObTweVxQlyyFo5v_3acQ-21">
          <mxGeometry relative="1" as="geometry" />
        </mxCell>
        <mxCell id="DWMPWbV9-WAkpCnThg0R-2" value="Car" style="rounded=0;whiteSpace=wrap;html=1;fillColor=#FFD966;" parent="1" vertex="1">
          <mxGeometry x="490" y="340" width="120" height="60" as="geometry" />
        </mxCell>
        <mxCell id="DWMPWbV9-WAkpCnThg0R-3" value="Maintenance Schedule" style="rounded=0;whiteSpace=wrap;html=1;fillColor=#FFD966;" parent="1" vertex="1">
          <mxGeometry x="822" y="339" width="120" height="60" as="geometry" />
        </mxCell>
        <mxCell id="ObTweVxQlyyFo5v_3acQ-66" value="" style="edgeStyle=orthogonalEdgeStyle;rounded=0;orthogonalLoop=1;jettySize=auto;html=1;endArrow=none;fillColor=#A9C4EB;" edge="1" parent="1" source="DWMPWbV9-WAkpCnThg0R-5" target="DWMPWbV9-WAkpCnThg0R-2">
          <mxGeometry relative="1" as="geometry" />
        </mxCell>
        <mxCell id="ObTweVxQlyyFo5v_3acQ-67" value="" style="edgeStyle=orthogonalEdgeStyle;rounded=0;orthogonalLoop=1;jettySize=auto;html=1;endArrow=none;fillColor=#A9C4EB;" edge="1" parent="1" source="DWMPWbV9-WAkpCnThg0R-5" target="ObTweVxQlyyFo5v_3acQ-4">
          <mxGeometry relative="1" as="geometry" />
        </mxCell>
        <mxCell id="DWMPWbV9-WAkpCnThg0R-5" value="owned by" style="rhombus;whiteSpace=wrap;html=1;fillColor=#FF9999;" parent="1" vertex="1">
          <mxGeometry x="510" y="440" width="80" height="80" as="geometry" />
        </mxCell>
        <mxCell id="DWMPWbV9-WAkpCnThg0R-14" style="edgeStyle=orthogonalEdgeStyle;rounded=0;orthogonalLoop=1;jettySize=auto;html=1;exitX=0.5;exitY=1;exitDx=0;exitDy=0;entryX=0.5;entryY=0;entryDx=0;entryDy=0;fillColor=#A9C4EB;endArrow=none;" parent="1" source="ObTweVxQlyyFo5v_3acQ-53" target="DWMPWbV9-WAkpCnThg0R-2" edge="1">
          <mxGeometry relative="1" as="geometry">
            <mxPoint x="550" y="288" as="sourcePoint" />
          </mxGeometry>
        </mxCell>
        <mxCell id="ObTweVxQlyyFo5v_3acQ-74" value="" style="edgeStyle=orthogonalEdgeStyle;rounded=0;orthogonalLoop=1;jettySize=auto;html=1;endArrow=none;fillColor=#A9C4EB;" edge="1" parent="1" source="DWMPWbV9-WAkpCnThg0R-15" target="DWMPWbV9-WAkpCnThg0R-30">
          <mxGeometry relative="1" as="geometry" />
        </mxCell>
        <mxCell id="DWMPWbV9-WAkpCnThg0R-15" value="Rental Request" style="rounded=0;whiteSpace=wrap;html=1;fillColor=#FFD966;" parent="1" vertex="1">
          <mxGeometry x="490" y="1212" width="120" height="60" as="geometry" />
        </mxCell>
        <mxCell id="ObTweVxQlyyFo5v_3acQ-69" value="" style="edgeStyle=orthogonalEdgeStyle;rounded=0;orthogonalLoop=1;jettySize=auto;html=1;endArrow=none;fillColor=#A9C4EB;" edge="1" parent="1" source="DWMPWbV9-WAkpCnThg0R-19" target="DWMPWbV9-WAkpCnThg0R-15">
          <mxGeometry relative="1" as="geometry" />
        </mxCell>
        <mxCell id="DWMPWbV9-WAkpCnThg0R-19" value="handles" style="rhombus;whiteSpace=wrap;html=1;fillColor=#FF9999;" parent="1" vertex="1">
          <mxGeometry x="510" y="1092" width="80" height="80" as="geometry" />
        </mxCell>
        <mxCell id="ObTweVxQlyyFo5v_3acQ-68" value="" style="edgeStyle=orthogonalEdgeStyle;rounded=0;orthogonalLoop=1;jettySize=auto;html=1;endArrow=none;fillColor=#A9C4EB;" edge="1" parent="1" source="DWMPWbV9-WAkpCnThg0R-20" target="DWMPWbV9-WAkpCnThg0R-19">
          <mxGeometry relative="1" as="geometry" />
        </mxCell>
        <mxCell id="DWMPWbV9-WAkpCnThg0R-20" value="Employees" style="rounded=0;whiteSpace=wrap;html=1;fillColor=#FFD966;" parent="1" vertex="1">
          <mxGeometry x="490" y="967" width="120" height="60" as="geometry" />
        </mxCell>
        <mxCell id="ObTweVxQlyyFo5v_3acQ-12" value="" style="edgeStyle=orthogonalEdgeStyle;rounded=0;orthogonalLoop=1;jettySize=auto;html=1;endArrow=none;fillColor=#A9C4EB;" edge="1" parent="1" target="DWMPWbV9-WAkpCnThg0R-22">
          <mxGeometry relative="1" as="geometry">
            <mxPoint x="550" y="712" as="sourcePoint" />
          </mxGeometry>
        </mxCell>
        <mxCell id="ObTweVxQlyyFo5v_3acQ-29" value="" style="edgeStyle=orthogonalEdgeStyle;rounded=0;orthogonalLoop=1;jettySize=auto;html=1;endArrow=none;fillColor=#A9C4EB;" edge="1" parent="1" source="DWMPWbV9-WAkpCnThg0R-22" target="ObTweVxQlyyFo5v_3acQ-20">
          <mxGeometry relative="1" as="geometry" />
        </mxCell>
        <mxCell id="DWMPWbV9-WAkpCnThg0R-22" value="Branch" style="rounded=0;whiteSpace=wrap;html=1;fillColor=#FFD966;" parent="1" vertex="1">
          <mxGeometry x="490" y="752" width="120" height="60" as="geometry" />
        </mxCell>
        <mxCell id="DWMPWbV9-WAkpCnThg0R-29" value="Revenue&lt;br&gt;(of one car)" style="rounded=0;whiteSpace=wrap;html=1;fillColor=#FFD966;" parent="1" vertex="1">
          <mxGeometry x="490" y="1422" width="120" height="60" as="geometry" />
        </mxCell>
        <mxCell id="ObTweVxQlyyFo5v_3acQ-75" value="" style="edgeStyle=orthogonalEdgeStyle;rounded=0;orthogonalLoop=1;jettySize=auto;html=1;endArrow=none;fillColor=#A9C4EB;" edge="1" parent="1" source="DWMPWbV9-WAkpCnThg0R-30" target="DWMPWbV9-WAkpCnThg0R-29">
          <mxGeometry relative="1" as="geometry" />
        </mxCell>
        <mxCell id="DWMPWbV9-WAkpCnThg0R-30" value="generates" style="rhombus;whiteSpace=wrap;html=1;fillColor=#FF9999;" parent="1" vertex="1">
          <mxGeometry x="510" y="1302" width="80" height="80" as="geometry" />
        </mxCell>
        <mxCell id="DWMPWbV9-WAkpCnThg0R-52" style="edgeStyle=orthogonalEdgeStyle;rounded=0;orthogonalLoop=1;jettySize=auto;html=1;exitX=1;exitY=0.5;exitDx=0;exitDy=0;entryX=0.25;entryY=0;entryDx=0;entryDy=0;fillColor=#A9C4EB;endArrow=none;" parent="1" source="DWMPWbV9-WAkpCnThg0R-43" target="DWMPWbV9-WAkpCnThg0R-2" edge="1">
          <mxGeometry relative="1" as="geometry" />
        </mxCell>
        <mxCell id="DWMPWbV9-WAkpCnThg0R-43" value="&lt;u&gt;CarID &lt;/u&gt;" style="ellipse;whiteSpace=wrap;html=1;fillColor=#A9C4EB;" parent="1" vertex="1">
          <mxGeometry x="397" y="310" width="110" height="30" as="geometry" />
        </mxCell>
        <mxCell id="DWMPWbV9-WAkpCnThg0R-51" style="edgeStyle=orthogonalEdgeStyle;rounded=0;orthogonalLoop=1;jettySize=auto;html=1;exitX=1;exitY=0.5;exitDx=0;exitDy=0;entryX=0.25;entryY=1;entryDx=0;entryDy=0;fillColor=#A9C4EB;endArrow=none;" parent="1" source="DWMPWbV9-WAkpCnThg0R-44" target="DWMPWbV9-WAkpCnThg0R-2" edge="1">
          <mxGeometry relative="1" as="geometry" />
        </mxCell>
        <mxCell id="DWMPWbV9-WAkpCnThg0R-44" value="Type" style="ellipse;whiteSpace=wrap;html=1;fillColor=#A9C4EB;" parent="1" vertex="1">
          <mxGeometry x="397" y="400" width="110" height="30" as="geometry" />
        </mxCell>
        <mxCell id="DWMPWbV9-WAkpCnThg0R-50" style="edgeStyle=orthogonalEdgeStyle;rounded=0;orthogonalLoop=1;jettySize=auto;html=1;exitX=0;exitY=0.5;exitDx=0;exitDy=0;entryX=0.75;entryY=1;entryDx=0;entryDy=0;fillColor=#A9C4EB;endArrow=none;" parent="1" source="DWMPWbV9-WAkpCnThg0R-45" target="DWMPWbV9-WAkpCnThg0R-2" edge="1">
          <mxGeometry relative="1" as="geometry" />
        </mxCell>
        <mxCell id="DWMPWbV9-WAkpCnThg0R-45" value="car_number" style="ellipse;whiteSpace=wrap;html=1;fillColor=#A9C4EB;" parent="1" vertex="1">
          <mxGeometry x="590" y="400" width="110" height="30" as="geometry" />
        </mxCell>
        <mxCell id="DWMPWbV9-WAkpCnThg0R-73" style="edgeStyle=orthogonalEdgeStyle;rounded=0;orthogonalLoop=1;jettySize=auto;html=1;entryX=0.5;entryY=1;entryDx=0;entryDy=0;fillColor=#A9C4EB;endArrow=none;" parent="1" source="DWMPWbV9-WAkpCnThg0R-70" target="DWMPWbV9-WAkpCnThg0R-3" edge="1">
          <mxGeometry relative="1" as="geometry" />
        </mxCell>
        <mxCell id="DWMPWbV9-WAkpCnThg0R-70" value="Maintenance Date" style="ellipse;whiteSpace=wrap;html=1;fillColor=#A9C4EB;" parent="1" vertex="1">
          <mxGeometry x="827" y="419" width="110" height="30" as="geometry" />
        </mxCell>
        <mxCell id="ObTweVxQlyyFo5v_3acQ-17" style="edgeStyle=orthogonalEdgeStyle;rounded=0;orthogonalLoop=1;jettySize=auto;html=1;entryX=0.25;entryY=0;entryDx=0;entryDy=0;endArrow=none;fillColor=#A9C4EB;" edge="1" parent="1" source="DWMPWbV9-WAkpCnThg0R-75" target="DWMPWbV9-WAkpCnThg0R-22">
          <mxGeometry relative="1" as="geometry" />
        </mxCell>
        <mxCell id="DWMPWbV9-WAkpCnThg0R-75" value="&lt;u&gt;BranchID&lt;/u&gt;" style="ellipse;whiteSpace=wrap;html=1;fillColor=#A9C4EB;" parent="1" vertex="1">
          <mxGeometry x="360" y="712" width="110" height="30" as="geometry" />
        </mxCell>
        <mxCell id="ObTweVxQlyyFo5v_3acQ-19" style="edgeStyle=orthogonalEdgeStyle;rounded=0;orthogonalLoop=1;jettySize=auto;html=1;entryX=1;entryY=0.5;entryDx=0;entryDy=0;endArrow=none;fillColor=#A9C4EB;" edge="1" parent="1" source="DWMPWbV9-WAkpCnThg0R-76" target="DWMPWbV9-WAkpCnThg0R-22">
          <mxGeometry relative="1" as="geometry" />
        </mxCell>
        <mxCell id="DWMPWbV9-WAkpCnThg0R-76" value="Contact Information" style="ellipse;whiteSpace=wrap;html=1;fillColor=#A9C4EB;" parent="1" vertex="1">
          <mxGeometry x="640" y="767" width="110" height="30" as="geometry" />
        </mxCell>
        <mxCell id="DWMPWbV9-WAkpCnThg0R-80" style="edgeStyle=orthogonalEdgeStyle;rounded=0;orthogonalLoop=1;jettySize=auto;html=1;fillColor=#A9C4EB;endArrow=none;" parent="1" source="DWMPWbV9-WAkpCnThg0R-77" target="DWMPWbV9-WAkpCnThg0R-22" edge="1">
          <mxGeometry relative="1" as="geometry" />
        </mxCell>
        <mxCell id="DWMPWbV9-WAkpCnThg0R-77" value="Location" style="ellipse;whiteSpace=wrap;html=1;fillColor=#A9C4EB;" parent="1" vertex="1">
          <mxGeometry x="360" y="767" width="110" height="30" as="geometry" />
        </mxCell>
        <mxCell id="DWMPWbV9-WAkpCnThg0R-85" style="edgeStyle=orthogonalEdgeStyle;rounded=0;orthogonalLoop=1;jettySize=auto;html=1;entryX=0.25;entryY=0;entryDx=0;entryDy=0;exitX=1;exitY=0.5;exitDx=0;exitDy=0;fillColor=#A9C4EB;endArrow=none;" parent="1" source="DWMPWbV9-WAkpCnThg0R-78" target="DWMPWbV9-WAkpCnThg0R-20" edge="1">
          <mxGeometry relative="1" as="geometry" />
        </mxCell>
        <mxCell id="DWMPWbV9-WAkpCnThg0R-78" value="Contact Information" style="ellipse;whiteSpace=wrap;html=1;fillColor=#A9C4EB;" parent="1" vertex="1">
          <mxGeometry x="380" y="902" width="120" height="40" as="geometry" />
        </mxCell>
        <mxCell id="DWMPWbV9-WAkpCnThg0R-86" style="edgeStyle=orthogonalEdgeStyle;rounded=0;orthogonalLoop=1;jettySize=auto;html=1;entryX=0.75;entryY=0;entryDx=0;entryDy=0;fillColor=#A9C4EB;endArrow=none;" parent="1" source="DWMPWbV9-WAkpCnThg0R-82" target="DWMPWbV9-WAkpCnThg0R-20" edge="1">
          <mxGeometry relative="1" as="geometry" />
        </mxCell>
        <mxCell id="DWMPWbV9-WAkpCnThg0R-82" value="Position" style="ellipse;whiteSpace=wrap;html=1;fillColor=#A9C4EB;" parent="1" vertex="1">
          <mxGeometry x="620" y="907" width="110" height="30" as="geometry" />
        </mxCell>
        <mxCell id="DWMPWbV9-WAkpCnThg0R-88" style="edgeStyle=orthogonalEdgeStyle;rounded=0;orthogonalLoop=1;jettySize=auto;html=1;entryX=0.25;entryY=1;entryDx=0;entryDy=0;fillColor=#A9C4EB;endArrow=none;" parent="1" source="DWMPWbV9-WAkpCnThg0R-83" target="DWMPWbV9-WAkpCnThg0R-20" edge="1">
          <mxGeometry relative="1" as="geometry">
            <Array as="points">
              <mxPoint x="520" y="1072" />
            </Array>
          </mxGeometry>
        </mxCell>
        <mxCell id="DWMPWbV9-WAkpCnThg0R-83" value="Name" style="ellipse;whiteSpace=wrap;html=1;fillColor=#A9C4EB;" parent="1" vertex="1">
          <mxGeometry x="390" y="1057" width="110" height="30" as="geometry" />
        </mxCell>
        <mxCell id="DWMPWbV9-WAkpCnThg0R-87" style="edgeStyle=orthogonalEdgeStyle;rounded=0;orthogonalLoop=1;jettySize=auto;html=1;entryX=0.75;entryY=1;entryDx=0;entryDy=0;fillColor=#A9C4EB;endArrow=none;" parent="1" source="DWMPWbV9-WAkpCnThg0R-84" target="DWMPWbV9-WAkpCnThg0R-20" edge="1">
          <mxGeometry relative="1" as="geometry" />
        </mxCell>
        <mxCell id="DWMPWbV9-WAkpCnThg0R-84" value="&lt;u&gt;EmployeeID&lt;/u&gt;" style="ellipse;whiteSpace=wrap;html=1;fillColor=#A9C4EB;" parent="1" vertex="1">
          <mxGeometry x="620" y="1057" width="110" height="30" as="geometry" />
        </mxCell>
        <mxCell id="ObTweVxQlyyFo5v_3acQ-70" value="" style="edgeStyle=orthogonalEdgeStyle;rounded=0;orthogonalLoop=1;jettySize=auto;html=1;endArrow=none;fillColor=#A9C4EB;" edge="1" parent="1" source="DWMPWbV9-WAkpCnThg0R-89" target="DWMPWbV9-WAkpCnThg0R-15">
          <mxGeometry relative="1" as="geometry" />
        </mxCell>
        <mxCell id="DWMPWbV9-WAkpCnThg0R-89" value="&lt;u&gt;RequestID&lt;/u&gt;" style="ellipse;whiteSpace=wrap;html=1;fillColor=#A9C4EB;" parent="1" vertex="1">
          <mxGeometry x="340" y="1222" width="120" height="40" as="geometry" />
        </mxCell>
        <mxCell id="ObTweVxQlyyFo5v_3acQ-71" value="" style="edgeStyle=orthogonalEdgeStyle;rounded=0;orthogonalLoop=1;jettySize=auto;html=1;endArrow=none;fillColor=#A9C4EB;" edge="1" parent="1" source="DWMPWbV9-WAkpCnThg0R-91" target="DWMPWbV9-WAkpCnThg0R-15">
          <mxGeometry relative="1" as="geometry" />
        </mxCell>
        <mxCell id="DWMPWbV9-WAkpCnThg0R-91" value="Return Date" style="ellipse;whiteSpace=wrap;html=1;fillColor=#A9C4EB;" parent="1" vertex="1">
          <mxGeometry x="650" y="1252" width="120" height="40" as="geometry" />
        </mxCell>
        <mxCell id="ObTweVxQlyyFo5v_3acQ-76" style="edgeStyle=orthogonalEdgeStyle;rounded=0;orthogonalLoop=1;jettySize=auto;html=1;entryX=1;entryY=0.5;entryDx=0;entryDy=0;endArrow=none;fillColor=#A9C4EB;" edge="1" parent="1" source="DWMPWbV9-WAkpCnThg0R-92" target="DWMPWbV9-WAkpCnThg0R-15">
          <mxGeometry relative="1" as="geometry" />
        </mxCell>
        <mxCell id="DWMPWbV9-WAkpCnThg0R-92" value="Request Date" style="ellipse;whiteSpace=wrap;html=1;fillColor=#A9C4EB;" parent="1" vertex="1">
          <mxGeometry x="650" y="1192" width="120" height="40" as="geometry" />
        </mxCell>
        <mxCell id="DWMPWbV9-WAkpCnThg0R-105" style="edgeStyle=orthogonalEdgeStyle;rounded=0;orthogonalLoop=1;jettySize=auto;html=1;exitX=0.5;exitY=0;exitDx=0;exitDy=0;fillColor=#A9C4EB;endArrow=none;" parent="1" source="DWMPWbV9-WAkpCnThg0R-97" target="DWMPWbV9-WAkpCnThg0R-29" edge="1">
          <mxGeometry relative="1" as="geometry" />
        </mxCell>
        <mxCell id="DWMPWbV9-WAkpCnThg0R-97" value="Payment Date" style="ellipse;whiteSpace=wrap;html=1;fillColor=#A9C4EB;" parent="1" vertex="1">
          <mxGeometry x="490" y="1512" width="120" height="40" as="geometry" />
        </mxCell>
        <mxCell id="DWMPWbV9-WAkpCnThg0R-101" style="edgeStyle=orthogonalEdgeStyle;rounded=0;orthogonalLoop=1;jettySize=auto;html=1;entryX=0;entryY=0.75;entryDx=0;entryDy=0;fillColor=#A9C4EB;endArrow=none;" parent="1" source="DWMPWbV9-WAkpCnThg0R-98" target="DWMPWbV9-WAkpCnThg0R-29" edge="1">
          <mxGeometry relative="1" as="geometry" />
        </mxCell>
        <mxCell id="DWMPWbV9-WAkpCnThg0R-98" value="Amount Earned" style="ellipse;whiteSpace=wrap;html=1;fillColor=#A9C4EB;" parent="1" vertex="1">
          <mxGeometry x="330" y="1462" width="120" height="40" as="geometry" />
        </mxCell>
        <mxCell id="DWMPWbV9-WAkpCnThg0R-102" style="edgeStyle=orthogonalEdgeStyle;rounded=0;orthogonalLoop=1;jettySize=auto;html=1;entryX=0;entryY=0.25;entryDx=0;entryDy=0;fillColor=#A9C4EB;endArrow=none;" parent="1" source="DWMPWbV9-WAkpCnThg0R-99" target="DWMPWbV9-WAkpCnThg0R-29" edge="1">
          <mxGeometry relative="1" as="geometry" />
        </mxCell>
        <mxCell id="DWMPWbV9-WAkpCnThg0R-99" value="&lt;u&gt;RevenueID&lt;/u&gt;" style="ellipse;whiteSpace=wrap;html=1;fillColor=#A9C4EB;" parent="1" vertex="1">
          <mxGeometry x="330" y="1402" width="120" height="40" as="geometry" />
        </mxCell>
        <mxCell id="ObTweVxQlyyFo5v_3acQ-72" value="" style="edgeStyle=orthogonalEdgeStyle;rounded=0;orthogonalLoop=1;jettySize=auto;html=1;endArrow=none;fillColor=#A9C4EB;" edge="1" parent="1" source="DWMPWbV9-WAkpCnThg0R-100" target="DWMPWbV9-WAkpCnThg0R-29">
          <mxGeometry relative="1" as="geometry" />
        </mxCell>
        <mxCell id="DWMPWbV9-WAkpCnThg0R-100" value="Payment Method" style="ellipse;whiteSpace=wrap;html=1;fillColor=#A9C4EB;" parent="1" vertex="1">
          <mxGeometry x="650" y="1432" width="120" height="40" as="geometry" />
        </mxCell>
        <mxCell id="ObTweVxQlyyFo5v_3acQ-13" value="" style="edgeStyle=orthogonalEdgeStyle;rounded=0;orthogonalLoop=1;jettySize=auto;html=1;endArrow=none;fillColor=#A9C4EB;" edge="1" parent="1" source="ObTweVxQlyyFo5v_3acQ-4" target="DWMPWbV9-WAkpCnThg0R-21">
          <mxGeometry relative="1" as="geometry" />
        </mxCell>
        <mxCell id="ObTweVxQlyyFo5v_3acQ-4" value="Company" style="rounded=0;whiteSpace=wrap;html=1;fillColor=#FFD966;" vertex="1" parent="1">
          <mxGeometry x="490" y="550" width="120" height="60" as="geometry" />
        </mxCell>
        <mxCell id="ObTweVxQlyyFo5v_3acQ-8" value="&lt;u&gt;CarID &lt;/u&gt;" style="ellipse;whiteSpace=wrap;html=1;fillColor=#A9C4EB;" vertex="1" parent="1">
          <mxGeometry x="600" y="310" width="110" height="30" as="geometry" />
        </mxCell>
        <mxCell id="ObTweVxQlyyFo5v_3acQ-15" value="" style="edgeStyle=orthogonalEdgeStyle;rounded=0;orthogonalLoop=1;jettySize=auto;html=1;fillColor=#A9C4EB;endArrow=none;" edge="1" parent="1" source="ObTweVxQlyyFo5v_3acQ-14" target="DWMPWbV9-WAkpCnThg0R-3">
          <mxGeometry relative="1" as="geometry" />
        </mxCell>
        <mxCell id="ObTweVxQlyyFo5v_3acQ-14" value="&lt;u&gt;ScheduleID&lt;/u&gt;" style="ellipse;whiteSpace=wrap;html=1;fillColor=#A9C4EB;" vertex="1" parent="1">
          <mxGeometry x="827" y="284" width="110" height="30" as="geometry" />
        </mxCell>
        <mxCell id="ObTweVxQlyyFo5v_3acQ-20" value="has" style="rhombus;whiteSpace=wrap;html=1;fillColor=#FF9999;" vertex="1" parent="1">
          <mxGeometry x="510" y="840" width="80" height="80" as="geometry" />
        </mxCell>
        <mxCell id="ObTweVxQlyyFo5v_3acQ-65" value="" style="edgeStyle=orthogonalEdgeStyle;rounded=0;orthogonalLoop=1;jettySize=auto;html=1;fillColor=#A9C4EB;endArrow=none;" edge="1" parent="1" source="ObTweVxQlyyFo5v_3acQ-21" target="DWMPWbV9-WAkpCnThg0R-3">
          <mxGeometry relative="1" as="geometry">
            <Array as="points">
              <mxPoint x="820" y="370" />
              <mxPoint x="820" y="370" />
            </Array>
          </mxGeometry>
        </mxCell>
        <mxCell id="ObTweVxQlyyFo5v_3acQ-21" value="has" style="rhombus;whiteSpace=wrap;html=1;fillColor=#FF9999;" vertex="1" parent="1">
          <mxGeometry x="700" y="330" width="80" height="80" as="geometry" />
        </mxCell>
        <mxCell id="ObTweVxQlyyFo5v_3acQ-24" value="" style="edgeStyle=orthogonalEdgeStyle;rounded=0;orthogonalLoop=1;jettySize=auto;html=1;fillColor=#A9C4EB;endArrow=none;" edge="1" parent="1" source="ObTweVxQlyyFo5v_3acQ-23" target="DWMPWbV9-WAkpCnThg0R-3">
          <mxGeometry relative="1" as="geometry" />
        </mxCell>
        <mxCell id="ObTweVxQlyyFo5v_3acQ-23" value="Maintenance Details" style="ellipse;whiteSpace=wrap;html=1;fillColor=#A9C4EB;" vertex="1" parent="1">
          <mxGeometry x="972" y="354" width="110" height="30" as="geometry" />
        </mxCell>
        <mxCell id="ObTweVxQlyyFo5v_3acQ-32" value="" style="edgeStyle=orthogonalEdgeStyle;rounded=0;orthogonalLoop=1;jettySize=auto;html=1;exitX=0.5;exitY=1;exitDx=0;exitDy=0;endArrow=none;fillColor=#A9C4EB;" edge="1" parent="1" source="ObTweVxQlyyFo5v_3acQ-20" target="DWMPWbV9-WAkpCnThg0R-20">
          <mxGeometry relative="1" as="geometry">
            <mxPoint x="1505" y="590" as="sourcePoint" />
          </mxGeometry>
        </mxCell>
        <mxCell id="ObTweVxQlyyFo5v_3acQ-64" value="" style="edgeStyle=orthogonalEdgeStyle;rounded=0;orthogonalLoop=1;jettySize=auto;html=1;endArrow=none;fillColor=#A9C4EB;" edge="1" parent="1" source="ObTweVxQlyyFo5v_3acQ-34" target="ObTweVxQlyyFo5v_3acQ-58">
          <mxGeometry relative="1" as="geometry" />
        </mxCell>
        <mxCell id="ObTweVxQlyyFo5v_3acQ-34" value="Manufacturer" style="rounded=0;whiteSpace=wrap;html=1;fillColor=#FFD966;" vertex="1" parent="1">
          <mxGeometry x="140" y="340" width="120" height="60" as="geometry" />
        </mxCell>
        <mxCell id="ObTweVxQlyyFo5v_3acQ-36" value="&lt;u&gt;ManufacturerID&lt;/u&gt;" style="ellipse;whiteSpace=wrap;html=1;fillColor=#A9C4EB;" vertex="1" parent="1">
          <mxGeometry y="325" width="110" height="30" as="geometry" />
        </mxCell>
        <mxCell id="ObTweVxQlyyFo5v_3acQ-37" style="edgeStyle=orthogonalEdgeStyle;rounded=0;orthogonalLoop=1;jettySize=auto;html=1;entryX=0;entryY=0.75;entryDx=0;entryDy=0;fillColor=#A9C4EB;endArrow=none;" edge="1" parent="1" source="ObTweVxQlyyFo5v_3acQ-38" target="ObTweVxQlyyFo5v_3acQ-34">
          <mxGeometry relative="1" as="geometry" />
        </mxCell>
        <mxCell id="ObTweVxQlyyFo5v_3acQ-38" value="Contact Information" style="ellipse;whiteSpace=wrap;html=1;fillColor=#A9C4EB;" vertex="1" parent="1">
          <mxGeometry y="385" width="110" height="30" as="geometry" />
        </mxCell>
        <mxCell id="ObTweVxQlyyFo5v_3acQ-62" value="" style="edgeStyle=orthogonalEdgeStyle;rounded=0;orthogonalLoop=1;jettySize=auto;html=1;endArrow=none;fillColor=#A9C4EB;" edge="1" parent="1" source="ObTweVxQlyyFo5v_3acQ-40" target="ObTweVxQlyyFo5v_3acQ-34">
          <mxGeometry relative="1" as="geometry" />
        </mxCell>
        <mxCell id="ObTweVxQlyyFo5v_3acQ-40" value="Name" style="ellipse;whiteSpace=wrap;html=1;fillColor=#A9C4EB;" vertex="1" parent="1">
          <mxGeometry x="145" y="290" width="110" height="30" as="geometry" />
        </mxCell>
        <mxCell id="ObTweVxQlyyFo5v_3acQ-63" value="" style="edgeStyle=orthogonalEdgeStyle;rounded=0;orthogonalLoop=1;jettySize=auto;html=1;endArrow=none;fillColor=#A9C4EB;" edge="1" parent="1" source="ObTweVxQlyyFo5v_3acQ-42" target="ObTweVxQlyyFo5v_3acQ-34">
          <mxGeometry relative="1" as="geometry" />
        </mxCell>
        <mxCell id="ObTweVxQlyyFo5v_3acQ-42" value="Location" style="ellipse;whiteSpace=wrap;html=1;fillColor=#A9C4EB;" vertex="1" parent="1">
          <mxGeometry x="145" y="430" width="110" height="30" as="geometry" />
        </mxCell>
        <mxCell id="ObTweVxQlyyFo5v_3acQ-43" style="edgeStyle=orthogonalEdgeStyle;rounded=0;orthogonalLoop=1;jettySize=auto;html=1;entryX=0.002;entryY=0.392;entryDx=0;entryDy=0;entryPerimeter=0;fillColor=#A9C4EB;endArrow=none;" edge="1" parent="1" source="ObTweVxQlyyFo5v_3acQ-36" target="ObTweVxQlyyFo5v_3acQ-34">
          <mxGeometry relative="1" as="geometry" />
        </mxCell>
        <mxCell id="ObTweVxQlyyFo5v_3acQ-44" value="&lt;div&gt;Customer&lt;/div&gt;" style="rounded=0;whiteSpace=wrap;html=1;fillColor=#FFD966;" vertex="1" parent="1">
          <mxGeometry x="490" y="120" width="120" height="60" as="geometry" />
        </mxCell>
        <mxCell id="ObTweVxQlyyFo5v_3acQ-56" value="" style="edgeStyle=orthogonalEdgeStyle;rounded=0;orthogonalLoop=1;jettySize=auto;html=1;endArrow=none;fillColor=#A9C4EB;" edge="1" parent="1" source="ObTweVxQlyyFo5v_3acQ-46" target="ObTweVxQlyyFo5v_3acQ-44">
          <mxGeometry relative="1" as="geometry" />
        </mxCell>
        <mxCell id="ObTweVxQlyyFo5v_3acQ-46" value="Contact Information" style="ellipse;whiteSpace=wrap;html=1;fillColor=#A9C4EB;" vertex="1" parent="1">
          <mxGeometry x="350" y="130" width="120" height="40" as="geometry" />
        </mxCell>
        <mxCell id="ObTweVxQlyyFo5v_3acQ-47" value="&lt;u&gt;CustomerID&lt;/u&gt;" style="ellipse;whiteSpace=wrap;html=1;fillColor=#A9C4EB;" vertex="1" parent="1">
          <mxGeometry x="430" y="60" width="120" height="30" as="geometry" />
        </mxCell>
        <mxCell id="ObTweVxQlyyFo5v_3acQ-48" value="Name" style="ellipse;whiteSpace=wrap;html=1;fillColor=#A9C4EB;" vertex="1" parent="1">
          <mxGeometry x="560" y="60" width="110" height="30" as="geometry" />
        </mxCell>
        <mxCell id="ObTweVxQlyyFo5v_3acQ-57" value="" style="edgeStyle=orthogonalEdgeStyle;rounded=0;orthogonalLoop=1;jettySize=auto;html=1;endArrow=none;fillColor=#A9C4EB;" edge="1" parent="1" source="ObTweVxQlyyFo5v_3acQ-50" target="ObTweVxQlyyFo5v_3acQ-44">
          <mxGeometry relative="1" as="geometry" />
        </mxCell>
        <mxCell id="ObTweVxQlyyFo5v_3acQ-50" value="Address" style="ellipse;whiteSpace=wrap;html=1;fillColor=#A9C4EB;" vertex="1" parent="1">
          <mxGeometry x="635" y="130" width="120" height="40" as="geometry" />
        </mxCell>
        <mxCell id="ObTweVxQlyyFo5v_3acQ-51" style="edgeStyle=orthogonalEdgeStyle;rounded=0;orthogonalLoop=1;jettySize=auto;html=1;exitX=0.5;exitY=1;exitDx=0;exitDy=0;entryX=0.664;entryY=0;entryDx=0;entryDy=0;entryPerimeter=0;fillColor=#A9C4EB;endArrow=none;" edge="1" parent="1" source="ObTweVxQlyyFo5v_3acQ-48" target="ObTweVxQlyyFo5v_3acQ-44">
          <mxGeometry relative="1" as="geometry" />
        </mxCell>
        <mxCell id="ObTweVxQlyyFo5v_3acQ-52" style="edgeStyle=orthogonalEdgeStyle;rounded=0;orthogonalLoop=1;jettySize=auto;html=1;entryX=0.417;entryY=0;entryDx=0;entryDy=0;entryPerimeter=0;fillColor=#A9C4EB;endArrow=none;" edge="1" parent="1" source="ObTweVxQlyyFo5v_3acQ-47" target="ObTweVxQlyyFo5v_3acQ-44">
          <mxGeometry relative="1" as="geometry" />
        </mxCell>
        <mxCell id="ObTweVxQlyyFo5v_3acQ-55" value="" style="edgeStyle=orthogonalEdgeStyle;rounded=0;orthogonalLoop=1;jettySize=auto;html=1;endArrow=none;fillColor=#A9C4EB;" edge="1" parent="1" source="ObTweVxQlyyFo5v_3acQ-53" target="ObTweVxQlyyFo5v_3acQ-44">
          <mxGeometry relative="1" as="geometry" />
        </mxCell>
        <mxCell id="ObTweVxQlyyFo5v_3acQ-53" value="Rents" style="rhombus;whiteSpace=wrap;html=1;fillColor=#FF9999;" vertex="1" parent="1">
          <mxGeometry x="510" y="220" width="80" height="80" as="geometry" />
        </mxCell>
        <mxCell id="ObTweVxQlyyFo5v_3acQ-60" style="edgeStyle=orthogonalEdgeStyle;rounded=0;orthogonalLoop=1;jettySize=auto;html=1;entryX=0;entryY=0.5;entryDx=0;entryDy=0;endArrow=none;fillColor=#A9C4EB;" edge="1" parent="1" source="ObTweVxQlyyFo5v_3acQ-58" target="DWMPWbV9-WAkpCnThg0R-2">
          <mxGeometry relative="1" as="geometry" />
        </mxCell>
        <mxCell id="ObTweVxQlyyFo5v_3acQ-58" value="Manufactures" style="rhombus;whiteSpace=wrap;html=1;fillColor=#FF9999;" vertex="1" parent="1">
          <mxGeometry x="317" y="330" width="80" height="80" as="geometry" />
        </mxCell>
        <mxCell id="ObTweVxQlyyFo5v_3acQ-77" value="" style="edgeStyle=orthogonalEdgeStyle;rounded=0;orthogonalLoop=1;jettySize=auto;html=1;endArrow=none;fillColor=#A9C4EB;" edge="1" parent="1" target="DWMPWbV9-WAkpCnThg0R-21">
          <mxGeometry relative="1" as="geometry">
            <mxPoint x="549.9999999999998" y="660" as="sourcePoint" />
            <mxPoint x="550" y="790" as="targetPoint" />
          </mxGeometry>
        </mxCell>
        <mxCell id="DWMPWbV9-WAkpCnThg0R-21" value="has" style="rhombus;whiteSpace=wrap;html=1;fillColor=#FF9999;" parent="1" vertex="1">
          <mxGeometry x="510" y="640" width="80" height="80" as="geometry" />
        </mxCell>
        <mxCell id="ObTweVxQlyyFo5v_3acQ-79" value="" style="edgeStyle=orthogonalEdgeStyle;rounded=0;orthogonalLoop=1;jettySize=auto;html=1;fillColor=#A9C4EB;endArrow=none;" edge="1" parent="1" source="ObTweVxQlyyFo5v_3acQ-78" target="ObTweVxQlyyFo5v_3acQ-4">
          <mxGeometry relative="1" as="geometry" />
        </mxCell>
        <mxCell id="ObTweVxQlyyFo5v_3acQ-78" value="&lt;u&gt;CompanyID&lt;/u&gt;" style="ellipse;whiteSpace=wrap;html=1;fillColor=#A9C4EB;" vertex="1" parent="1">
          <mxGeometry x="340" y="535" width="110" height="30" as="geometry" />
        </mxCell>
        <mxCell id="ObTweVxQlyyFo5v_3acQ-83" value="" style="edgeStyle=orthogonalEdgeStyle;rounded=0;orthogonalLoop=1;jettySize=auto;html=1;fillColor=#A9C4EB;endArrow=none;" edge="1" parent="1" source="ObTweVxQlyyFo5v_3acQ-80" target="ObTweVxQlyyFo5v_3acQ-4">
          <mxGeometry relative="1" as="geometry" />
        </mxCell>
        <mxCell id="ObTweVxQlyyFo5v_3acQ-80" value="&lt;span&gt;Company Name&lt;/span&gt;" style="ellipse;whiteSpace=wrap;html=1;fillColor=#A9C4EB;fontStyle=0" vertex="1" parent="1">
          <mxGeometry x="650" y="540" width="110" height="30" as="geometry" />
        </mxCell>
        <mxCell id="ObTweVxQlyyFo5v_3acQ-84" value="1" style="text;html=1;align=center;verticalAlign=middle;resizable=0;points=[];autosize=1;strokeColor=none;fillColor=none;" vertex="1" parent="1">
          <mxGeometry x="540" y="820" width="30" height="30" as="geometry" />
        </mxCell>
        <mxCell id="ObTweVxQlyyFo5v_3acQ-85" value="N" style="text;html=1;align=center;verticalAlign=middle;resizable=0;points=[];autosize=1;strokeColor=none;fillColor=none;" vertex="1" parent="1">
          <mxGeometry x="540" y="912" width="30" height="30" as="geometry" />
        </mxCell>
        <mxCell id="ObTweVxQlyyFo5v_3acQ-87" value="1" style="text;html=1;align=center;verticalAlign=middle;resizable=0;points=[];autosize=1;strokeColor=none;fillColor=none;" vertex="1" parent="1">
          <mxGeometry x="540" y="1070" width="30" height="30" as="geometry" />
        </mxCell>
        <mxCell id="ObTweVxQlyyFo5v_3acQ-88" value="1" style="text;html=1;align=center;verticalAlign=middle;resizable=0;points=[];autosize=1;strokeColor=none;fillColor=none;" vertex="1" parent="1">
          <mxGeometry x="540" y="200" width="30" height="30" as="geometry" />
        </mxCell>
        <mxCell id="ObTweVxQlyyFo5v_3acQ-89" value="N" style="text;html=1;align=center;verticalAlign=middle;resizable=0;points=[];autosize=1;strokeColor=none;fillColor=none;" vertex="1" parent="1">
          <mxGeometry x="540" y="295" width="30" height="30" as="geometry" />
        </mxCell>
        <mxCell id="ObTweVxQlyyFo5v_3acQ-90" value="1" style="text;html=1;align=center;verticalAlign=middle;resizable=0;points=[];autosize=1;strokeColor=none;fillColor=none;" vertex="1" parent="1">
          <mxGeometry x="285" y="350" width="30" height="30" as="geometry" />
        </mxCell>
        <mxCell id="ObTweVxQlyyFo5v_3acQ-91" value="N" style="text;html=1;align=center;verticalAlign=middle;resizable=0;points=[];autosize=1;strokeColor=none;fillColor=none;" vertex="1" parent="1">
          <mxGeometry x="390" y="350" width="30" height="30" as="geometry" />
        </mxCell>
        <mxCell id="ObTweVxQlyyFo5v_3acQ-92" value="1" style="text;html=1;align=center;verticalAlign=middle;resizable=0;points=[];autosize=1;strokeColor=none;fillColor=none;" vertex="1" parent="1">
          <mxGeometry x="680" y="340" width="30" height="30" as="geometry" />
        </mxCell>
        <mxCell id="ObTweVxQlyyFo5v_3acQ-95" value="1" style="text;html=1;align=center;verticalAlign=middle;resizable=0;points=[];autosize=1;strokeColor=none;fillColor=none;" vertex="1" parent="1">
          <mxGeometry x="770" y="340" width="30" height="30" as="geometry" />
        </mxCell>
        <mxCell id="ObTweVxQlyyFo5v_3acQ-96" value="N" style="text;html=1;align=center;verticalAlign=middle;resizable=0;points=[];autosize=1;strokeColor=none;fillColor=none;" vertex="1" parent="1">
          <mxGeometry x="540" y="415" width="30" height="30" as="geometry" />
        </mxCell>
        <mxCell id="ObTweVxQlyyFo5v_3acQ-97" value="1" style="text;html=1;align=center;verticalAlign=middle;resizable=0;points=[];autosize=1;strokeColor=none;fillColor=none;" vertex="1" parent="1">
          <mxGeometry x="540" y="510" width="30" height="30" as="geometry" />
        </mxCell>
        <mxCell id="ObTweVxQlyyFo5v_3acQ-98" value="1" style="text;html=1;align=center;verticalAlign=middle;resizable=0;points=[];autosize=1;strokeColor=none;fillColor=none;" vertex="1" parent="1">
          <mxGeometry x="540" y="620" width="30" height="30" as="geometry" />
        </mxCell>
        <mxCell id="ObTweVxQlyyFo5v_3acQ-99" value="N" style="text;html=1;align=center;verticalAlign=middle;resizable=0;points=[];autosize=1;strokeColor=none;fillColor=none;" vertex="1" parent="1">
          <mxGeometry x="540" y="712" width="30" height="30" as="geometry" />
        </mxCell>
        <mxCell id="ObTweVxQlyyFo5v_3acQ-100" value="N" style="text;html=1;align=center;verticalAlign=middle;resizable=0;points=[];autosize=1;strokeColor=none;fillColor=none;" vertex="1" parent="1">
          <mxGeometry x="540" y="1172" width="30" height="30" as="geometry" />
        </mxCell>
        <mxCell id="ObTweVxQlyyFo5v_3acQ-101" value="N" style="text;html=1;align=center;verticalAlign=middle;resizable=0;points=[];autosize=1;strokeColor=none;fillColor=none;" vertex="1" parent="1">
          <mxGeometry x="540" y="1280" width="30" height="30" as="geometry" />
        </mxCell>
        <mxCell id="ObTweVxQlyyFo5v_3acQ-102" value="1" style="text;html=1;align=center;verticalAlign=middle;resizable=0;points=[];autosize=1;strokeColor=none;fillColor=none;" vertex="1" parent="1">
          <mxGeometry x="540" y="1382" width="30" height="30" as="geometry" />
        </mxCell>
      </root>
    </mxGraphModel>
  </diagram>
</mxfile>
